<svg width="1024" height="1024" viewBox="0 0 1024 1024" fill="none" xmlns="http://www.w3.org/2000/svg">
<path d="M628.289 309.415C624.803 309.838 621.21 309.944 617.643 310.05C614.077 310.156 610.484 310.103 606.891 310.05C603.324 310.024 599.704 309.865 596.084 309.759C592.491 309.68 588.871 309.548 585.251 309.495C581.658 309.442 578.038 309.468 574.418 309.468C570.798 309.495 567.178 309.574 563.558 309.627C559.938 309.68 556.318 309.786 552.698 309.838C549.078 309.918 545.457 309.971 541.837 310.024C538.191 310.076 534.571 310.103 530.924 310.129C527.304 310.156 523.657 310.156 520.037 310.156C516.39 310.156 512.743 310.156 509.123 310.129C505.476 310.103 501.856 310.076 498.21 310.05C494.563 309.997 490.943 309.971 487.296 309.918C483.676 309.865 480.029 309.812 476.409 309.759C472.789 309.706 469.142 309.653 465.522 309.601C461.902 309.521 458.282 309.468 454.662 309.415C451.042 309.363 447.449 309.31 443.829 309.283C440.209 309.257 436.589 309.23 432.996 309.257C429.376 309.257 425.755 309.31 422.135 309.363C418.542 309.415 414.922 309.548 411.302 309.601C407.682 309.653 404.062 309.706 400.469 309.68C396.849 309.653 393.229 309.548 389.636 309.495C386.043 309.415 382.476 309.336 378.883 309.31C375.317 309.283 371.777 309.31 368.211 309.336C364.671 309.363 361.131 309.442 357.565 309.495C353.999 309.574 350.432 309.653 346.866 309.706C343.273 309.759 339.68 309.838 336.06 309.865C332.439 309.918 328.819 309.944 325.199 309.944C321.553 309.971 317.933 309.971 314.313 309.944C310.693 309.944 307.073 309.918 303.479 309.891C299.886 309.865 296.347 309.838 292.78 309.786C289.214 309.759 285.674 309.706 282.108 309.653C278.541 309.601 274.975 309.548 271.382 309.495C267.815 309.468 264.222 309.415 260.629 309.389C257.036 309.363 253.443 309.363 249.823 309.336C246.229 309.336 242.636 309.336 239.043 309.336C235.423 309.336 231.83 309.363 228.21 309.363C224.59 309.363 220.997 309.363 217.376 309.363C213.756 309.389 210.136 309.389 206.516 309.389C202.896 309.389 199.276 309.363 195.656 309.363C192.036 309.363 188.416 309.363 184.796 309.363C181.176 309.363 177.556 309.336 173.936 309.336C170.316 309.336 166.696 309.336 163.076 309.336C159.456 309.336 155.836 309.336 152.216 309.336C148.596 309.336 144.976 309.336 141.356 309.336C137.736 309.336 134.143 309.363 130.523 309.363C126.903 309.389 123.31 309.389 119.69 309.415C116.096 309.442 112.476 309.442 108.883 309.468C105.263 309.495 101.67 309.521 98.05 309.548C94.43 309.574 90.8368 309.601 87.2168 309.653C83.5967 309.68 79.9767 309.706 76.3567 309.759C72.7367 309.786 69.1167 309.812 65.4966 309.865C61.8498 309.891 58.203 309.997 54.583 309.971C50.9629 309.944 47.3161 310.024 43.8033 309.733C40.2906 309.415 36.8046 309.072 33.56 308.173C30.2886 307.274 27.0976 306.084 24.2284 304.287C21.3592 302.515 18.6241 300.004 16.2644 297.44C13.9047 294.875 11.7595 291.835 10.0701 288.874C8.35396 285.913 6.9864 282.794 6.04788 279.621C5.13617 276.449 4.70715 273.144 4.49263 269.84C4.27811 266.509 4.51943 263.098 4.84121 259.714C5.16299 256.304 5.77974 252.867 6.39649 249.457C6.98642 246.073 7.73724 242.663 8.43443 239.332C9.15843 235.974 9.88242 232.696 10.6601 229.418C11.4377 226.14 12.2421 222.888 13.1002 219.689C13.9583 216.464 14.87 213.265 15.8353 210.093C16.8007 206.92 17.8197 203.774 18.9191 200.655C19.9917 197.509 21.1447 194.389 22.3246 191.323C23.5312 188.23 24.7915 185.136 26.1055 182.096C27.4194 179.056 28.787 176.016 30.2082 173.002C31.6293 169.988 33.1042 167.001 34.6326 164.04C36.1343 161.079 37.7164 158.118 39.3521 155.21C40.9878 152.276 42.6771 149.368 44.4201 146.486C46.1362 143.604 47.9328 140.723 49.7831 137.894C51.6065 135.039 53.5103 132.237 55.4678 129.434C57.4253 126.632 59.4096 123.856 61.4744 121.107C63.5392 118.357 65.6575 115.634 67.8295 112.938C70.0015 110.241 72.254 107.571 74.5333 104.901C76.8125 102.257 79.1723 99.64 81.5588 97.0228C83.9721 94.432 86.4123 91.8676 88.9061 89.3561C91.3999 86.8182 93.9473 84.3332 96.5215 81.901C99.0958 79.4424 101.697 77.0366 104.352 74.6838C106.979 72.3309 109.661 70.0309 112.342 67.7838C115.051 65.5367 117.759 63.3424 120.494 61.201C123.229 59.0861 125.964 56.9976 128.753 54.9884C131.515 52.9528 134.331 50.9965 137.146 49.093C139.962 47.1896 142.804 45.339 145.673 43.5677C148.543 41.77 151.439 40.0516 154.361 38.3597C157.284 36.6942 160.207 35.0815 163.184 33.5218C166.16 31.962 169.163 30.4551 172.193 29.0011C175.223 27.5735 178.28 26.1724 181.364 24.8241C184.448 23.5023 187.558 22.2068 190.669 20.9907C193.806 19.7482 196.97 18.5586 200.135 17.4482C203.299 16.3115 206.516 15.2275 209.707 14.1965C212.925 13.1655 216.17 12.1873 219.414 11.262C222.659 10.3103 225.904 9.41148 229.202 8.59194C232.473 7.74596 235.772 6.92642 239.097 6.21263C242.422 5.49884 245.774 4.81148 249.152 4.22987C252.531 3.64826 255.963 3.14597 259.422 2.72298C262.881 2.29999 266.394 1.98274 269.907 1.71837C273.447 1.454 277.013 1.29539 280.606 1.1632C284.173 1.00458 287.793 0.951707 291.413 0.872397C295.006 0.793087 298.626 0.766656 302.246 0.713783C305.866 0.660909 309.486 0.608042 313.106 0.555169C316.726 0.502295 320.346 0.449414 323.966 0.422977C327.586 0.370104 331.206 0.317242 334.826 0.290806C338.446 0.264369 342.066 0.237915 345.686 0.211479C349.306 0.185042 352.953 0.158614 356.573 0.158614C360.22 0.132177 363.84 0.105749 367.487 0.105749C371.107 0.105749 374.753 0.079307 378.373 0.079307C382.02 0.079307 385.64 0.0793013 389.287 0.0528646C392.907 0.0528646 396.554 0.0528646 400.201 0.0528646C403.821 0.0528646 407.468 0.0264222 411.088 0.0264222C414.735 0.0264222 418.381 0.0264222 422.001 0.0264222C425.648 0.0264222 429.295 0.0264367 432.915 0C436.562 0 440.182 0 443.829 0C447.476 0 451.096 0 454.742 0C458.389 0 462.009 0 465.656 0C469.303 0 472.923 0 476.57 0C480.19 0 483.837 0 487.484 0C491.104 0 494.75 0 498.397 0C502.017 0 505.664 0 509.311 0C512.958 0 516.578 0 520.225 0C523.871 0 527.491 0 531.138 0C534.785 0 538.405 0 542.052 0C545.699 0 549.319 0 552.966 0C556.612 0 560.232 0 563.879 0C567.526 0 571.146 0 574.793 0C578.44 0 582.087 0 585.707 0C589.354 0 593 0.0264222 596.62 0.0264222C600.267 0.0264222 603.914 0.0264222 607.534 0.0264222C611.181 0.0264222 614.828 0.0264222 618.448 0.0264222C622.095 0.0264222 625.741 0.0264222 629.361 0.0264222C633.008 0.0264222 636.655 0.0264222 640.275 0.0264222C643.922 0.0264222 647.569 0.0264222 651.189 0.0264222C654.836 0.0264222 658.482 0.0264222 662.102 0.0264222C665.749 0.0264222 669.396 0.0264222 673.016 0.0264222C676.663 0.0264222 680.31 0.0264222 683.93 0.0264222C687.577 0.0264222 691.224 0.0264222 694.844 0.0264222C698.49 0.0264222 702.137 0.0264222 705.757 0.0264222C709.404 0.0264222 713.051 -1.45215e-05 716.671 0.0264222C720.318 0.0264222 723.938 -8.87345e-06 727.558 0.0528646C731.205 0.0793013 734.825 0.105746 738.418 0.185056C742.011 0.264366 745.604 0.370112 749.171 0.555169C752.737 0.740226 756.277 0.951705 759.789 1.24251C763.329 1.53331 766.815 1.87699 770.274 2.29998C773.733 2.69653 777.192 3.1724 780.598 3.72757C784.003 4.28274 787.382 4.8908 790.734 5.57815C794.086 6.23907 797.411 7.00573 800.709 7.79883C804.007 8.61837 807.279 9.49077 810.523 10.4161C813.768 11.3678 816.986 12.3459 820.177 13.377C823.394 14.408 826.585 15.4919 829.75 16.6287C832.914 17.7655 836.051 18.9287 839.162 20.1712C842.299 21.3873 845.41 22.6563 848.493 23.9781C851.577 25.2999 854.634 26.6747 857.664 28.1022C860.721 29.5298 863.724 31.0103 866.727 32.5436C869.704 34.0769 872.68 35.6631 875.63 37.3022C878.553 38.9677 881.476 40.6861 884.372 42.4574C887.268 44.2286 890.11 46.0792 892.952 47.9826C895.795 49.9125 898.584 51.8953 901.372 53.9574C904.134 55.993 906.896 58.1344 909.604 60.355C912.313 62.5493 914.994 64.8228 917.676 67.1493C920.33 69.4757 922.985 71.855 925.613 74.2608C928.241 76.6401 930.869 79.0987 933.47 81.5573C936.044 84.0159 938.645 86.501 941.139 89.0389C943.633 91.5504 946.1 94.1147 948.486 96.7055C950.873 99.2963 953.179 101.94 955.431 104.584C957.657 107.254 959.829 109.95 961.92 112.673C964.039 115.396 966.05 118.172 968.034 120.948C969.992 123.75 971.896 126.553 973.746 129.381C975.596 132.237 977.393 135.092 979.109 137.973C980.852 140.855 982.514 143.763 984.15 146.697C985.759 149.632 987.341 152.566 988.843 155.527C990.344 158.488 991.819 161.476 993.214 164.489C994.635 167.503 995.975 170.543 997.289 173.584C998.577 176.65 999.81 179.717 1001.02 182.81C1002.2 185.903 1003.35 189.023 1004.42 192.169C1005.49 195.315 1006.57 198.461 1007.51 201.659C1008.47 204.858 1009.44 208.057 1010.13 211.388C1010.8 214.746 1011.53 218.288 1011.61 221.725C1011.69 225.188 1011.69 228.995 1010.62 232.035C1009.54 235.075 1007.56 237.931 1005.12 239.966C1002.65 242.028 999.166 243.403 995.868 244.355C992.57 245.28 988.896 245.412 985.33 245.597C981.737 245.782 978.036 245.518 974.389 245.465C970.716 245.412 967.069 245.333 963.422 245.28C959.775 245.227 956.128 245.201 952.482 245.174C948.835 245.148 945.188 245.121 941.541 245.121C937.894 245.095 934.274 245.095 930.627 245.095C926.981 245.095 923.361 245.095 919.714 245.095C916.094 245.121 912.447 245.121 908.827 245.148C905.18 245.148 901.56 245.174 897.913 245.174C894.293 245.201 890.646 245.201 887.026 245.227C883.379 245.227 879.733 245.254 876.113 245.254C872.466 245.28 868.846 245.28 865.199 245.28C861.579 245.306 857.932 245.306 854.285 245.306C850.665 245.306 847.018 245.306 843.372 245.306C839.752 245.306 836.105 245.306 832.458 245.306C828.811 245.28 825.191 245.28 821.544 245.28C817.897 245.254 814.251 245.227 810.604 245.227C806.957 245.201 803.337 245.174 799.69 245.148C796.043 245.148 792.396 245.121 788.75 245.095C785.103 245.068 781.456 245.068 777.836 245.068C774.189 245.042 770.542 245.042 766.922 245.068C763.275 245.068 759.655 245.095 756.008 245.121C752.388 245.148 748.768 245.201 745.148 245.254C741.528 245.306 737.908 245.386 734.315 245.491C730.695 245.597 727.048 245.65 723.509 245.862C719.942 246.047 716.349 246.232 712.944 246.655C709.511 247.104 706.213 247.686 702.968 248.505C699.724 249.325 696.587 250.329 693.422 251.545C690.258 252.762 686.987 254.163 683.957 255.802C680.953 257.441 677.923 259.265 675.295 261.38C672.668 263.521 670.254 265.874 668.243 268.491C666.232 271.109 664.784 274.122 663.256 277.11C661.727 280.071 660.601 283.349 659.126 286.389C657.624 289.429 656.23 292.602 654.299 295.378C652.369 298.153 650.143 300.929 647.542 302.965C644.914 305.001 641.83 306.481 638.613 307.565C635.395 308.649 631.802 309.019 628.289 309.415Z" fill="#D83960"/>
<path d="M655.131 653.965C651.404 654.362 647.596 654.547 643.761 654.653C639.954 654.758 636.065 654.706 632.177 654.653C628.289 654.573 624.374 654.388 620.486 654.283C616.598 654.15 612.683 654.018 608.821 653.939C604.933 653.833 601.072 653.807 597.211 653.754C593.349 653.727 589.515 653.727 585.653 653.727C581.819 653.727 577.957 653.754 574.123 653.754C570.262 653.754 566.4 653.78 562.539 653.78C558.677 653.78 554.789 653.78 550.928 653.78C547.04 653.78 543.178 653.78 539.29 653.78C535.402 653.78 531.514 653.78 527.626 653.78C523.738 653.78 519.849 653.78 515.961 653.78C512.073 653.78 508.185 653.78 504.27 653.78C500.382 653.78 496.494 653.78 492.605 653.78C488.717 653.78 484.829 653.807 480.941 653.807C477.053 653.807 473.165 653.833 469.276 653.833C465.388 653.86 461.5 653.886 457.612 653.886C453.724 653.912 449.836 653.912 445.947 653.939C442.059 653.965 438.171 653.965 434.283 653.992C430.422 653.992 426.533 654.018 422.645 654.018C418.757 654.045 414.869 654.045 410.981 654.045C407.119 654.045 403.231 654.071 399.343 654.071C395.455 654.071 391.567 654.045 387.679 654.045C383.817 654.045 379.929 654.045 376.041 654.018C372.153 654.018 368.265 654.018 364.376 653.992C360.488 653.992 356.6 653.965 352.712 653.965C348.824 653.939 344.936 653.939 341.047 653.912C337.159 653.912 333.271 653.886 329.383 653.886C325.495 653.86 321.606 653.86 317.692 653.833C313.803 653.833 309.915 653.833 306.027 653.807C302.112 653.807 298.224 653.807 294.336 653.78C290.421 653.78 286.533 653.78 282.618 653.78C278.729 653.78 274.814 653.754 270.926 653.754C267.011 653.754 263.123 653.754 259.208 653.754C255.32 653.754 251.405 653.754 247.517 653.727C243.602 653.727 239.687 653.727 235.799 653.727C231.884 653.727 227.995 653.727 224.081 653.727C220.166 653.727 216.277 653.701 212.362 653.701C208.474 653.701 204.559 653.701 200.671 653.701C196.756 653.701 192.841 653.675 188.953 653.675C185.038 653.675 181.15 653.648 177.235 653.648C173.347 653.648 169.432 653.622 165.543 653.622C161.655 653.622 157.74 653.595 153.852 653.595C149.937 653.569 146.049 653.569 142.161 653.542C138.246 653.542 134.358 653.516 130.47 653.516C126.555 653.489 122.666 653.489 118.751 653.489C114.863 653.489 110.948 653.489 107.06 653.516C103.145 653.516 99.2301 653.542 95.3151 653.569C91.4001 653.595 87.4852 653.648 83.5702 653.701C79.6552 653.754 75.7402 653.833 71.7984 653.912C67.8566 653.965 63.9148 654.124 59.9998 654.15C56.0848 654.177 52.1699 654.23 48.3353 654.071C44.5008 653.912 40.6663 653.701 36.9658 653.146C33.2653 652.617 29.5649 652.009 26.1325 650.872C22.6734 649.762 19.2143 648.44 16.2378 646.431C13.2614 644.395 10.4726 641.646 8.3006 638.738C6.10177 635.83 4.41244 632.367 3.15213 628.983C1.89183 625.572 1.24826 621.977 0.711963 618.329C0.202479 614.707 0.148849 610.9 0.0415894 607.119C-0.0656704 603.365 0.0684101 599.479 0.0684101 595.646C0.095225 591.813 0.122031 587.953 0.122031 584.119C0.148846 580.26 0.148846 576.4 0.122031 572.54C0.122031 568.68 0.122031 564.821 0.122031 560.987C0.095216 557.128 0.0952308 553.268 0.0952308 549.408C0.0952308 545.575 0.0952308 541.715 0.0952308 537.855C0.0952308 534.022 0.0952308 530.189 0.0952308 526.329C0.0952308 522.495 0.095216 518.636 0.122031 514.802C0.122031 510.969 0.122031 507.109 0.122031 503.276C0.122031 499.416 0.122031 495.583 0.122031 491.723C0.122031 487.89 0.122031 484.03 0.122031 480.17C0.122031 476.337 0.0952308 472.477 0.0952308 468.617C0.0952308 464.758 0.0684101 460.898 0.0684101 457.038C0.0684101 453.205 -0.0656589 449.319 0.0952308 445.538C0.25612 441.784 0.336556 437.977 1.00693 434.408C1.70412 430.839 2.66946 427.323 4.19791 424.098C5.72637 420.846 7.79111 417.7 10.2045 415.004C12.6178 412.307 15.5943 409.769 18.7048 407.919C21.7885 406.095 25.2476 404.878 28.7872 403.98C32.3 403.054 36.0809 402.737 39.8618 402.473C43.6695 402.208 47.6113 402.314 51.5263 402.314C55.4145 402.341 59.3831 402.446 63.2981 402.473C67.2131 402.526 71.128 402.552 75.0162 402.552C78.9312 402.578 82.8462 402.578 86.7343 402.578C90.6493 402.578 94.5375 402.552 98.4525 402.552C102.341 402.552 106.256 402.552 110.144 402.552C114.059 402.526 117.947 402.526 121.862 402.526C125.75 402.526 129.665 402.526 133.553 402.526C137.468 402.526 141.356 402.526 145.271 402.499C149.16 402.499 153.075 402.499 156.963 402.499C160.878 402.499 164.793 402.499 168.681 402.499C172.596 402.499 176.484 402.499 180.399 402.499C184.287 402.499 188.202 402.499 192.09 402.499C196.005 402.499 199.893 402.499 203.808 402.499C207.697 402.499 211.612 402.499 215.5 402.499C219.415 402.499 223.33 402.499 227.218 402.499C231.133 402.499 235.021 402.499 238.936 402.499C242.824 402.499 246.739 402.499 250.654 402.499C254.542 402.499 258.457 402.499 262.345 402.499C266.26 402.499 270.149 402.499 274.064 402.499C277.979 402.499 281.867 402.499 285.782 402.499C289.67 402.499 293.585 402.526 297.5 402.526C301.388 402.526 305.303 402.526 309.191 402.526C313.106 402.526 317.021 402.526 320.909 402.526C324.824 402.526 328.712 402.526 332.627 402.526C336.542 402.526 340.431 402.526 344.346 402.526C348.234 402.526 352.149 402.526 356.064 402.526C359.952 402.526 363.867 402.526 367.755 402.526C371.67 402.526 375.558 402.526 379.473 402.526C383.388 402.526 387.276 402.526 391.191 402.526C395.079 402.526 398.994 402.526 402.883 402.526C406.798 402.526 410.686 402.526 414.601 402.526C418.516 402.526 422.404 402.526 426.319 402.526C430.207 402.526 434.122 402.526 438.01 402.526C441.898 402.526 445.813 402.526 449.702 402.499C453.616 402.499 457.505 402.499 461.42 402.499C465.308 402.499 469.223 402.499 473.111 402.499C477.026 402.499 480.914 402.473 484.829 402.473C488.717 402.473 492.632 402.473 496.52 402.473C500.435 402.473 504.324 402.473 508.239 402.473C512.127 402.473 516.042 402.473 519.93 402.473C523.845 402.473 527.733 402.473 531.648 402.473C535.536 402.473 539.451 402.473 543.366 402.473C547.254 402.473 551.169 402.473 555.084 402.499C558.972 402.499 562.887 402.499 566.802 402.499C570.717 402.526 574.632 402.526 578.521 402.526C582.435 402.552 586.35 402.552 590.265 402.578C594.18 402.578 598.095 402.605 602.01 402.605C605.925 402.631 609.84 402.658 613.755 402.658C617.67 402.658 621.585 402.658 625.474 402.631C629.362 402.605 633.223 402.578 637.084 402.473C640.946 402.393 644.78 402.288 648.561 402.076C652.369 401.865 656.15 401.68 659.85 401.23C663.524 400.781 667.198 400.252 670.737 399.38C674.304 398.534 677.79 397.476 681.141 396.049C684.52 394.647 687.791 392.876 690.902 390.92C694.012 388.937 697.043 386.664 699.885 384.258C702.701 381.826 705.409 379.182 707.929 376.459C710.45 373.736 712.81 370.854 715.009 367.867C717.234 364.906 719.272 361.76 721.23 358.614C723.214 355.495 724.689 351.873 726.834 349.018C728.979 346.189 731.151 343.36 734.101 341.536C737.051 339.685 740.858 338.787 744.532 338.073C748.206 337.385 752.228 337.412 756.116 337.359C760.031 337.306 764 337.65 767.914 337.729C771.829 337.835 775.744 337.888 779.633 337.914C783.548 337.914 787.436 337.861 791.324 337.835C795.212 337.808 799.127 337.756 803.015 337.756C806.93 337.729 810.818 337.703 814.707 337.703C818.622 337.703 822.51 337.703 826.425 337.703C830.34 337.703 834.228 337.703 838.143 337.703C842.058 337.703 845.946 337.703 849.861 337.729C853.749 337.729 857.664 337.729 861.579 337.729C865.467 337.756 869.382 337.756 873.297 337.756C877.185 337.756 881.1 337.756 884.989 337.782C888.904 337.782 892.792 337.782 896.707 337.782C900.595 337.782 904.51 337.756 908.398 337.756C912.313 337.756 916.201 337.756 920.116 337.756C924.004 337.756 927.919 337.756 931.807 337.729C935.722 337.729 939.638 337.729 943.526 337.729C947.441 337.729 951.329 337.729 955.244 337.703C959.159 337.703 963.047 337.703 966.962 337.703C970.877 337.703 974.792 337.676 978.653 337.729C982.541 337.808 986.483 337.623 990.21 338.099C993.911 338.575 997.638 339.21 1000.96 340.584C1004.32 341.985 1007.48 344.074 1010.21 346.453C1012.95 348.833 1015.42 351.82 1017.32 354.887C1019.25 357.953 1020.7 361.39 1021.74 364.853C1022.82 368.316 1023.3 371.965 1023.68 375.639C1024.05 379.341 1024 383.174 1024 386.981C1024.02 390.814 1023.81 394.7 1023.76 398.56C1023.68 402.42 1023.62 406.28 1023.62 410.139C1023.6 413.999 1023.62 417.859 1023.65 421.719C1023.68 425.552 1023.73 429.412 1023.76 433.272C1023.81 437.105 1023.84 440.938 1023.84 444.798C1023.86 448.631 1023.86 452.491 1023.86 456.324C1023.86 460.158 1023.84 464.017 1023.84 467.851C1023.81 471.684 1023.78 475.544 1023.76 479.377C1023.76 483.237 1023.73 487.07 1023.7 490.904C1023.7 494.763 1023.68 498.623 1023.68 502.456C1023.68 506.316 1023.68 510.176 1023.7 514.036C1023.7 517.895 1023.76 521.755 1023.78 525.615C1023.84 529.475 1023.89 533.361 1023.92 537.194C1023.94 541.054 1023.97 544.914 1023.92 548.747C1023.89 552.554 1023.84 556.387 1023.65 560.141C1023.46 563.895 1023.43 567.702 1022.84 571.324C1022.23 574.946 1021.58 578.568 1020.08 581.846C1018.61 585.098 1016.44 588.296 1013.94 590.887C1011.45 593.505 1008.36 595.778 1005.17 597.444C1001.98 599.135 998.389 600.219 994.796 600.986C991.176 601.726 987.341 601.753 983.534 601.911C979.726 602.07 975.811 601.938 971.949 601.938C968.061 601.964 964.146 601.964 960.258 601.991C956.343 602.017 952.428 602.044 948.513 602.07C944.598 602.096 940.683 602.123 936.768 602.149C932.853 602.149 928.938 602.176 925.023 602.176C921.108 602.202 917.22 602.202 913.305 602.202C909.39 602.202 905.502 602.202 901.587 602.176C897.699 602.176 893.784 602.176 889.896 602.149C886.008 602.149 882.119 602.123 878.231 602.123C874.343 602.096 870.455 602.096 866.567 602.07C862.679 602.044 858.79 602.044 854.902 602.017C851.041 602.017 847.153 601.991 843.291 601.991C839.403 601.964 835.542 601.964 831.654 601.938C827.792 601.938 823.931 601.938 820.07 601.938C816.208 601.938 812.347 601.938 808.486 601.938C804.624 601.938 800.763 601.964 796.901 601.964C793.067 601.991 789.206 602.017 785.371 602.044C781.51 602.07 777.648 602.096 773.814 602.149C769.979 602.202 766.118 602.202 762.31 602.334C758.502 602.467 754.695 602.599 750.968 602.969C747.267 603.365 743.593 603.841 740.027 604.687C736.487 605.507 733.028 606.591 729.703 607.992C726.378 609.393 723.187 611.191 720.05 613.094C716.939 614.998 713.909 617.192 710.933 619.413C707.956 621.66 705.033 623.986 702.191 626.471C699.349 628.983 696.64 631.706 693.878 634.402C691.117 637.072 688.569 640.271 685.673 642.624C682.75 644.977 679.693 646.986 676.422 648.572C673.177 650.158 669.665 651.242 666.125 652.141C662.585 653.04 658.858 653.542 655.131 653.965Z" fill="#0E54C4"/>
<path d="M698.759 1023.26C695.166 1023.42 691.573 1023.55 687.98 1023.66C684.36 1023.76 680.74 1023.81 677.12 1023.89C673.5 1023.95 669.88 1023.97 666.233 1024C662.586 1024 658.939 1024 655.292 1024C651.619 1024 647.972 1023.97 644.325 1023.95C640.651 1023.92 636.978 1023.87 633.331 1023.84C629.657 1023.81 625.983 1023.76 622.337 1023.74C618.663 1023.71 615.016 1023.68 611.343 1023.66C607.696 1023.66 604.022 1023.66 600.375 1023.63C596.728 1023.63 593.082 1023.63 589.408 1023.66C585.761 1023.66 582.114 1023.66 578.467 1023.68C574.821 1023.68 571.174 1023.71 567.527 1023.74C563.88 1023.74 560.26 1023.76 556.613 1023.79C552.966 1023.79 549.319 1023.81 545.673 1023.81C542.026 1023.84 538.379 1023.84 534.732 1023.87C531.112 1023.87 527.465 1023.87 523.818 1023.87C520.172 1023.87 516.525 1023.84 512.878 1023.84C509.231 1023.84 505.584 1023.81 501.937 1023.81C498.291 1023.79 494.617 1023.79 490.97 1023.76C487.323 1023.76 483.677 1023.74 480.03 1023.74C476.383 1023.71 472.709 1023.71 469.062 1023.71C465.415 1023.71 461.769 1023.68 458.095 1023.71C454.448 1023.71 450.801 1023.71 447.128 1023.71C443.481 1023.74 439.807 1023.76 436.16 1023.76C432.487 1023.79 428.84 1023.81 425.193 1023.84C421.519 1023.87 417.873 1023.87 414.226 1023.89C410.579 1023.89 406.932 1023.89 403.285 1023.89C399.638 1023.89 396.018 1023.87 392.372 1023.84C388.752 1023.79 385.132 1023.74 381.512 1023.68C377.892 1023.6 374.272 1023.5 370.678 1023.39C367.085 1023.26 363.492 1023.13 359.925 1022.94C356.332 1022.78 352.766 1022.57 349.2 1022.36C345.66 1022.15 342.094 1021.88 338.554 1021.62C335.014 1021.36 331.502 1021.07 327.962 1020.75C324.449 1020.43 320.937 1020.11 317.424 1019.74C313.938 1019.4 310.425 1019.03 306.966 1018.61C303.48 1018.21 300.021 1017.76 296.562 1017.29C293.129 1016.81 289.697 1016.28 286.265 1015.73C282.859 1015.17 279.481 1014.54 276.102 1013.9C272.723 1013.24 269.371 1012.53 266.046 1011.79C262.694 1011.05 259.396 1010.25 256.098 1009.41C252.8 1008.56 249.528 1007.69 246.257 1006.76C242.985 1005.84 239.741 1004.89 236.523 1003.88C233.305 1002.88 230.087 1001.82 226.897 1000.74C223.706 999.652 220.541 998.515 217.377 997.352C214.213 996.188 211.076 994.972 207.938 993.73C204.828 992.487 201.717 991.192 198.607 989.87C195.523 988.522 192.439 987.174 189.382 985.746C186.326 984.318 183.295 982.864 180.292 981.357C177.262 979.851 174.259 978.317 171.282 976.731C168.306 975.118 165.329 973.479 162.38 971.814C159.43 970.122 156.507 968.403 153.611 966.606C150.715 964.835 147.819 963.01 144.95 961.133C142.108 959.256 139.265 957.353 136.423 955.37C133.607 953.387 130.819 951.378 128.03 949.316C125.241 947.228 122.479 945.113 119.744 942.945C117.009 940.777 114.301 938.53 111.592 936.256C108.911 933.983 106.229 931.656 103.601 929.277C100.974 926.924 98.3456 924.492 95.7982 922.033C93.224 919.575 90.6766 917.09 88.1828 914.552C85.689 912.014 83.222 909.45 80.8355 906.859C78.4221 904.242 76.0624 901.624 73.7563 898.954C71.4502 896.311 69.1978 893.64 66.999 890.944C64.827 888.247 62.6818 885.524 60.5902 882.775C58.5254 880.026 56.4875 877.25 54.53 874.474C52.5725 871.671 50.6687 868.843 48.8184 866.014C46.9682 863.159 45.1984 860.304 43.4823 857.422C41.7661 854.514 40.1036 851.606 38.4947 848.672C36.8858 845.737 35.3841 842.776 33.8825 839.789C32.3809 836.801 30.9597 833.788 29.5116 830.774C28.0905 827.787 26.6693 824.746 25.2749 821.733C23.8537 818.692 22.4057 815.678 21.065 812.612C19.6974 809.572 18.3298 806.505 17.1768 803.359C16.0237 800.213 14.8975 797.041 14.1199 793.736C13.3422 790.458 12.6451 787.021 12.4305 783.584C12.216 780.174 12.1892 776.605 12.8059 773.248C13.3959 769.916 14.4685 766.48 16.0506 763.519C17.6058 760.584 19.7778 757.756 22.2448 755.535C24.7118 753.341 27.7419 751.569 30.8792 750.3C33.9898 749.058 37.5025 748.45 40.9885 748C44.4744 747.551 48.1749 747.657 51.7949 747.577C55.4417 747.498 59.1154 747.551 62.7622 747.551C66.409 747.525 70.0559 747.525 73.7027 747.498C77.3495 747.498 81.0232 747.498 84.67 747.472C88.3169 747.472 91.9637 747.472 95.6105 747.472C99.2573 747.472 102.931 747.445 106.578 747.445C110.225 747.445 113.872 747.445 117.518 747.445C121.165 747.445 124.812 747.445 128.486 747.445C132.132 747.445 135.779 747.445 139.426 747.445C143.073 747.472 146.72 747.472 150.367 747.472C154.013 747.472 157.66 747.472 161.334 747.472C164.981 747.472 168.628 747.498 172.274 747.498C175.921 747.498 179.568 747.498 183.215 747.498C186.862 747.498 190.509 747.525 194.155 747.525C197.802 747.525 201.476 747.525 205.123 747.525C208.77 747.525 212.416 747.525 216.063 747.551C219.71 747.551 223.357 747.551 227.004 747.551C230.651 747.551 234.297 747.551 237.944 747.551C241.618 747.551 245.265 747.551 248.912 747.551C252.558 747.551 256.205 747.551 259.852 747.551C263.499 747.551 267.146 747.551 270.793 747.551C274.439 747.551 278.113 747.525 281.76 747.525C285.407 747.525 289.054 747.525 292.7 747.525C296.347 747.525 299.994 747.525 303.641 747.525C307.288 747.525 310.935 747.525 314.608 747.498C318.255 747.498 321.902 747.498 325.549 747.498C329.196 747.498 332.842 747.498 336.489 747.498C340.136 747.498 343.783 747.498 347.457 747.498C351.103 747.472 354.75 747.472 358.397 747.472C362.044 747.472 365.691 747.472 369.338 747.472C372.984 747.472 376.631 747.472 380.305 747.472C383.952 747.472 387.599 747.472 391.245 747.472C394.892 747.472 398.539 747.472 402.186 747.498C405.86 747.498 409.506 747.498 413.153 747.498C416.8 747.498 420.447 747.498 424.094 747.498C427.741 747.498 431.387 747.498 435.061 747.525C438.708 747.525 442.355 747.525 446.001 747.525C449.648 747.525 453.295 747.525 456.942 747.525C460.589 747.525 464.262 747.551 467.909 747.551C471.556 747.551 475.203 747.551 478.85 747.551C482.497 747.551 486.143 747.551 489.79 747.551C493.464 747.551 497.111 747.551 500.758 747.551C504.404 747.551 508.051 747.551 511.698 747.551C515.345 747.551 518.992 747.551 522.639 747.551C526.285 747.551 529.932 747.551 533.579 747.525C537.226 747.525 540.873 747.525 544.546 747.525C548.193 747.525 551.84 747.498 555.487 747.498C559.134 747.498 562.781 747.472 566.427 747.472C570.074 747.445 573.721 747.445 577.368 747.445C581.015 747.419 584.662 747.419 588.308 747.419C591.955 747.419 595.602 747.392 599.249 747.392C602.896 747.419 606.569 747.419 610.216 747.419C613.863 747.419 617.51 747.445 621.184 747.472C624.83 747.498 628.477 747.525 632.151 747.551C635.824 747.578 639.471 747.63 643.145 747.683C646.792 747.736 650.465 747.789 654.112 747.815C657.759 747.815 661.406 747.815 665.026 747.71C668.619 747.604 672.212 747.472 675.752 747.181C679.292 746.89 682.804 746.546 686.237 746.018C689.696 745.463 693.101 744.828 696.4 743.982C699.725 743.163 702.969 742.184 706.133 740.968C709.271 739.779 712.328 738.404 715.304 736.844C718.254 735.258 721.096 733.434 723.858 731.478C726.62 729.495 729.275 727.327 731.903 725.027C734.504 722.753 736.997 720.242 739.518 717.73C742.012 715.219 744.398 712.47 746.919 710.011C749.439 707.552 751.933 705.014 754.668 702.979C757.377 700.97 760.219 699.198 763.249 697.876C766.306 696.555 769.578 695.735 772.903 695.074C776.254 694.413 779.767 694.149 783.307 693.937C786.846 693.699 790.493 693.752 794.113 693.726C797.733 693.699 801.38 693.752 805 693.779C808.647 693.805 812.294 693.858 815.914 693.884C819.561 693.937 823.207 693.99 826.827 694.043C830.474 694.07 834.121 694.122 837.768 694.175C841.388 694.228 845.035 694.255 848.682 694.307C852.328 694.334 855.975 694.36 859.622 694.387C863.269 694.413 866.889 694.44 870.536 694.466C874.183 694.466 877.829 694.493 881.449 694.493C885.096 694.519 888.716 694.519 892.363 694.519C895.983 694.519 899.603 694.519 903.223 694.493C906.87 694.493 910.49 694.466 914.083 694.44C917.703 694.44 921.297 694.413 924.917 694.387C928.537 694.334 932.13 694.308 935.75 694.255C939.37 694.202 942.963 694.149 946.61 694.096C950.257 694.017 953.93 693.937 957.631 693.858C961.304 693.779 965.058 693.594 968.786 693.567C972.486 693.541 976.24 693.435 979.834 693.673C983.454 693.911 987.02 694.228 990.399 694.968C993.75 695.735 996.995 696.74 999.972 698.22C1002.92 699.727 1005.71 701.683 1008.12 703.957C1010.54 706.204 1012.71 708.901 1014.42 711.756C1016.14 714.611 1017.51 717.81 1018.42 721.088C1019.31 724.34 1019.68 727.882 1019.87 731.345C1020.06 734.809 1019.81 738.404 1019.52 741.867C1019.2 745.357 1018.66 748.794 1018.1 752.204C1017.51 755.614 1016.81 758.972 1016.09 762.303C1015.36 765.634 1014.61 768.938 1013.78 772.217C1012.95 775.495 1012.09 778.746 1011.18 781.945C1010.24 785.17 1009.28 788.369 1008.26 791.542C1007.24 794.688 1006.17 797.834 1005.04 800.953C1003.91 804.073 1002.73 807.192 1001.5 810.259C1000.27 813.352 998.979 816.392 997.666 819.459C996.325 822.499 994.957 825.513 993.509 828.527C992.088 831.541 990.586 834.528 989.058 837.515C987.529 840.503 985.947 843.463 984.312 846.398C982.676 849.332 981.013 852.267 979.27 855.175C977.554 858.057 975.758 860.965 973.934 863.82C972.111 866.675 970.234 869.53 968.33 872.359C966.399 875.188 964.442 877.99 962.431 880.766C960.42 883.568 958.355 886.317 956.263 889.067C954.172 891.816 952.026 894.539 949.828 897.236C947.629 899.932 945.403 902.602 943.124 905.246C940.845 907.89 938.539 910.533 936.179 913.124C933.819 915.741 931.406 918.332 928.966 920.87C926.525 923.435 924.032 925.973 921.511 928.458C918.99 930.969 916.443 933.428 913.842 935.86C911.268 938.292 908.64 940.698 905.985 943.024C903.331 945.377 900.649 947.704 897.941 949.951C895.232 952.224 892.497 954.445 889.735 956.586C886.973 958.754 884.211 960.843 881.396 962.905C878.607 964.94 875.792 966.923 872.949 968.879C870.107 970.809 867.264 972.686 864.368 974.51C861.499 976.334 858.603 978.106 855.68 979.824C852.757 981.543 849.808 983.208 846.831 984.821C843.882 986.46 840.878 988.02 837.875 989.526C834.872 991.06 831.842 992.514 828.812 993.941C825.755 995.369 822.671 996.744 819.587 998.065C816.477 999.387 813.366 1000.66 810.229 1001.87C807.092 1003.09 803.927 1004.25 800.763 1005.39C797.572 1006.5 794.355 1007.56 791.137 1008.56C787.892 1009.57 784.648 1010.52 781.376 1011.42C778.105 1012.31 774.806 1013.16 771.481 1013.93C768.156 1014.72 764.804 1015.46 761.453 1016.12C758.074 1016.81 754.695 1017.42 751.263 1018C747.857 1018.55 744.425 1019.08 740.993 1019.56C737.534 1020.03 734.075 1020.46 730.589 1020.83C727.076 1021.22 723.59 1021.57 720.05 1021.88C716.537 1022.18 712.998 1022.44 709.458 1022.68C705.892 1022.89 702.326 1023.1 698.759 1023.26Z" fill="#F6981A"/>
</svg>
