<svg width="1024" height="1024" viewBox="0 0 1024 1024" fill="none" xmlns="http://www.w3.org/2000/svg">
<rect width="1024" height="1024" fill="#111113"/>
<g transform="translate(232 232) scale(0.547)">
<path d="M27.6662 1023.93H209.29C230.204 1023.93 242.029 1012.85 244.764 990.687L324.992 341.32C329.312 306.327 315.883 294.649 284.705 306.286L111.948 370.777C84.9299 380.861 69.635 401.078 66.0631 431.429L0.216352 990.661C-2.39792 1012.84 6.75204 1023.93 27.6662 1023.93Z" fill="#ffffff"/>
<path d="M345.62 1022.93H582.613C606.836 1022.93 620.736 1010.13 624.314 984.53L756.717 37.6275C761.759 1.55701 748.877 -8.62824 718.071 7.0717L465.141 135.957C438.309 149.627 422.796 172.186 418.601 203.633L314.415 984.495C310.996 1010.12 321.398 1022.93 345.62 1022.93Z" fill="#ffffff"/>
<path d="M722.086 1022.93H904.576C926.596 1022.93 939.396 1011.25 942.976 987.901L1012.15 537.03C1016.805 506.674 1006.246 485.325 980.471 472.984L824.035 398.098C794.288 383.855 776.961 394.278 772.055 429.366L693.965 987.839C690.692 1011.23 700.066 1022.93 722.086 1022.93Z" fill="#ffffff"/>
</g>
</svg>
